<svg width="25" height="25" viewBox="0 0 25 25" fill="none" xmlns="http://www.w3.org/2000/svg">
<path d="M0.00501672 25L1.69502 18.79C0.581439 16.8811 -0.00361329 14.71 1.67903e-05 12.5C1.67903e-05 5.59625 5.59626 0 12.5 0C19.4038 0 25 5.59625 25 12.5C25 19.4037 19.4038 25 12.5 25C10.291 25.0035 8.12083 24.4189 6.21251 23.3062L0.00501672 25ZM7.98876 6.635C7.82734 6.64502 7.6696 6.68753 7.52501 6.76C7.38941 6.83678 7.26563 6.93278 7.15751 7.045C7.00751 7.18625 6.92251 7.30874 6.83126 7.4275C6.36928 8.02874 6.12077 8.76677 6.12501 9.52499C6.12751 10.1375 6.28751 10.7337 6.53751 11.2912C7.04876 12.4187 7.89001 13.6125 9.00126 14.7187C9.26876 14.985 9.53001 15.2525 9.81126 15.5012C11.1905 16.7156 12.8341 17.5913 14.6113 18.0587L15.3225 18.1675C15.5538 18.18 15.785 18.1625 16.0175 18.1512C16.3816 18.1324 16.737 18.0339 17.0588 17.8625C17.2224 17.7782 17.3822 17.6864 17.5375 17.5875C17.5375 17.5875 17.5913 17.5525 17.6938 17.475C17.8625 17.35 17.9663 17.2612 18.1063 17.115C18.21 17.0075 18.3 16.8812 18.3688 16.7375C18.4663 16.5337 18.5638 16.145 18.6038 15.8212C18.6338 15.5737 18.625 15.4387 18.6213 15.355C18.6163 15.2212 18.505 15.0825 18.3838 15.0237L17.6563 14.6975C17.6563 14.6975 16.5688 14.2237 15.905 13.9212C15.835 13.8907 15.76 13.8734 15.6838 13.87C15.5982 13.8612 15.5118 13.8708 15.4303 13.8982C15.3488 13.9256 15.2741 13.9701 15.2113 14.0287V14.0262C15.205 14.0262 15.1213 14.0975 14.2175 15.1925C14.1656 15.2622 14.0942 15.3149 14.0123 15.3438C13.9303 15.3728 13.8417 15.3766 13.7575 15.355C13.6761 15.3332 13.5963 15.3056 13.5188 15.2725C13.3638 15.2075 13.31 15.1825 13.2038 15.1362L13.1975 15.1337C12.4824 14.8215 11.8203 14.3998 11.235 13.8837C11.0775 13.7462 10.9313 13.5962 10.7813 13.4512C10.2895 12.9803 9.8609 12.4475 9.50626 11.8662L9.43251 11.7475C9.37954 11.6677 9.33671 11.5816 9.30501 11.4912C9.25751 11.3075 9.38126 11.16 9.38126 11.16C9.38126 11.16 9.68501 10.8275 9.82626 10.6475C9.94387 10.4979 10.0536 10.3423 10.155 10.1812C10.3025 9.94374 10.3488 9.69999 10.2713 9.51124C9.92126 8.65624 9.55876 7.80499 9.18626 6.96C9.11251 6.7925 8.89376 6.6725 8.69501 6.64875C8.62751 6.64125 8.56001 6.63375 8.49251 6.62875C8.32464 6.62041 8.15643 6.62208 7.98876 6.63375V6.635Z" fill="#233545"/>
</svg>
